<svg width="60.000000" height="49.000000" viewBox="0 0 60 49" fill="none" xmlns="http://www.w3.org/2000/svg" xmlns:xlink="http://www.w3.org/1999/xlink">
	<desc>
			Created with Pixso.
	</desc>
	<defs/>
	<path id="V" d="M27.48 49L12.36 6.23C11.96 5.09 11.54 4.23 11.1 3.63C10.7 3.04 10.13 2.64 9.38 2.44C8.69 2.25 7.67 2.15 6.33 2.15L6.33 0L24.2 0L24.2 2.15L20.56 2.15C19.71 2.15 19.19 2.37 18.99 2.82C18.79 3.21 18.84 3.86 19.14 4.75L31.58 40.61L31.8 40.68L44.17 4.9C44.42 3.95 44.46 3.26 44.32 2.82C44.17 2.37 43.62 2.15 42.68 2.15L39.1 2.15L39.1 0L53.33 0L53.33 2.15C51.64 2.15 50.42 2.4 49.68 2.89C48.93 3.39 48.26 4.42 47.67 6.01L31.65 49L27.48 49Z" fill="#FFFFFF" fill-opacity="1.000000" fill-rule="nonzero"/>
	<rect id="Frame 6" rx="-0.500000" width="59.000000" height="11.333333" transform="translate(0.500000 18.833374)" fill="#2B2A29" fill-opacity="1.000000"/>
	<path id="Vistegra" d="M14.86 27.57C15.32 27.87 15.87 28.02 16.51 28.02Q17.54 28.02 18.18 27.52Q18.2 27.5 18.22 27.49C18.66 27.13 18.87 26.65 18.87 26.06Q18.87 25.79 18.79 25.56C18.75 25.4 18.69 25.26 18.62 25.16C18.56 25.04 18.46 24.93 18.31 24.83C18.17 24.71 18.05 24.63 17.95 24.57C17.85 24.5 17.7 24.43 17.48 24.35C17.28 24.26 17.12 24.2 17 24.17C16.9 24.13 16.72 24.06 16.46 23.98Q15.63 23.71 15.27 23.45C15.03 23.27 14.91 23.01 14.91 22.67Q14.91 22.3 15.08 22.04Q15.17 21.89 15.31 21.78C15.58 21.56 15.93 21.46 16.36 21.46Q16.97 21.46 17.4 21.73Q17.84 22.02 18.08 22.62L18.67 22.29C18.48 21.85 18.18 21.49 17.78 21.21Q17.65 21.11 17.5 21.03Q17 20.78 16.36 20.78C15.76 20.78 15.25 20.95 14.83 21.3Q14.61 21.48 14.47 21.71Q14.21 22.13 14.21 22.7Q14.21 23.13 14.39 23.46Q14.59 23.83 15.01 24.09C15.25 24.23 15.73 24.43 16.45 24.67Q17.37 24.97 17.77 25.25C18.04 25.43 18.17 25.71 18.17 26.08Q18.17 26.37 18.05 26.61Q17.95 26.83 17.73 27C17.45 27.22 17.04 27.34 16.52 27.34Q15.72 27.34 15.21 26.98C14.87 26.73 14.64 26.39 14.51 25.96L13.91 26.31C14.09 26.84 14.41 27.26 14.86 27.57ZM41.97 24.93L41.97 24.57L38.47 24.57L38.47 25.23L41.25 25.23Q41.2 25.68 41 26.05Q40.8 26.44 40.44 26.75C39.96 27.14 39.33 27.34 38.55 27.34Q37.68 27.34 37.03 26.96Q36.69 26.77 36.41 26.49C35.85 25.92 35.58 25.22 35.58 24.4C35.58 23.57 35.85 22.87 36.41 22.31Q36.69 22.02 37.03 21.83Q37.68 21.46 38.55 21.46C39.07 21.46 39.54 21.58 39.98 21.84C40.41 22.09 40.74 22.43 40.96 22.86L41.58 22.5C41.28 21.98 40.87 21.56 40.33 21.25C39.79 20.93 39.19 20.78 38.55 20.78C37.49 20.78 36.61 21.13 35.92 21.83C35.22 22.53 34.88 23.38 34.88 24.4C34.88 25.41 35.22 26.27 35.92 26.97C36.61 27.67 37.49 28.02 38.55 28.02C39.59 28.02 40.42 27.72 41.04 27.13C41.66 26.53 41.97 25.79 41.97 24.93ZM2.12 20.9L4.7 27.9L5.42 27.9L8 20.9L7.24 20.9L5.06 26.97L2.88 20.9L2.12 20.9ZM11.21 20.9L10.51 20.9L10.51 27.9L11.21 27.9L11.21 20.9ZM25.82 21.56L25.82 20.9L20.82 20.9L20.82 21.56L22.97 21.56L22.97 27.9L23.67 27.9L23.67 21.56L25.82 21.56ZM32.52 27.24L29.12 27.24L29.12 24.7L32.22 24.7L32.22 24.04L29.12 24.04L29.12 21.56L32.47 21.56L32.47 20.9L28.42 20.9L28.42 27.9L32.52 27.9L32.52 27.24ZM47.43 25.1L49.07 27.9L49.87 27.9L48.16 25.01C48.6 24.88 48.96 24.63 49.24 24.27Q49.44 23.99 49.55 23.68Q49.67 23.36 49.67 23C49.67 22.42 49.46 21.92 49.05 21.52C48.64 21.1 48.15 20.9 47.57 20.9L44.77 20.9L44.77 27.9L45.47 27.9L45.47 25.1L47.43 25.1ZM56.48 26.18L57.13 27.9L57.87 27.9L55.18 20.9L54.46 20.9L51.77 27.9L52.51 27.9L53.16 26.18L56.48 26.18ZM45.47 24.44L45.47 21.56L47.57 21.56C47.95 21.56 48.28 21.7 48.56 21.98C48.83 22.26 48.97 22.6 48.97 23C48.97 23.39 48.83 23.73 48.56 24.02C48.28 24.3 47.95 24.44 47.57 24.44L45.47 24.44ZM54.82 21.77L56.23 25.52L53.41 25.52L54.82 21.77Z" fill="#FFFFFF" fill-opacity="1.000000" fill-rule="evenodd"/>
</svg>
