<svg width="174.000000" height="49.000000" viewBox="0 0 174 49" fill="none" xmlns="http://www.w3.org/2000/svg" xmlns:xlink="http://www.w3.org/1999/xlink">
	<desc>
			Created with Pixso.
	</desc>
	<defs/>
	<path id="V" d="M27.48 49L12.36 6.23C11.96 5.09 11.54 4.23 11.1 3.63C10.7 3.04 10.13 2.64 9.38 2.44C8.69 2.25 7.67 2.15 6.33 2.15L6.33 0L24.2 0L24.2 2.15L20.56 2.15C19.71 2.15 19.19 2.37 18.99 2.82C18.79 3.21 18.84 3.86 19.14 4.75L31.58 40.61L31.8 40.68L44.17 4.9C44.42 3.95 44.46 3.26 44.32 2.82C44.17 2.37 43.62 2.15 42.68 2.15L39.1 2.15L39.1 0L53.33 0L53.33 2.15C51.64 2.15 50.42 2.4 49.68 2.89C48.93 3.39 48.26 4.42 47.67 6.01L31.65 49L27.48 49Z" fill="#FFFFFF" fill-opacity="1.000000" fill-rule="nonzero"/>
	<rect id="Frame 6" rx="-0.500000" width="59.000000" height="11.333333" transform="translate(0.500000 18.833374)" fill="#2B2A29" fill-opacity="1.000000"/>
	<path id="Vistegra" d="M14.86 27.57C15.32 27.87 15.87 28.02 16.51 28.02Q17.54 28.02 18.18 27.52Q18.2 27.5 18.22 27.49C18.66 27.13 18.87 26.65 18.87 26.06Q18.87 25.79 18.79 25.56C18.75 25.4 18.69 25.26 18.62 25.16C18.56 25.04 18.46 24.93 18.31 24.83C18.17 24.71 18.05 24.63 17.95 24.57C17.85 24.5 17.7 24.43 17.48 24.35C17.28 24.26 17.12 24.2 17 24.17C16.9 24.13 16.72 24.06 16.46 23.98Q15.63 23.71 15.27 23.45C15.03 23.27 14.91 23.01 14.91 22.67Q14.91 22.3 15.08 22.04Q15.17 21.89 15.31 21.78C15.58 21.56 15.93 21.46 16.36 21.46Q16.97 21.46 17.4 21.73Q17.84 22.02 18.08 22.62L18.67 22.29C18.48 21.85 18.18 21.49 17.78 21.21Q17.65 21.11 17.5 21.03Q17 20.78 16.36 20.78C15.76 20.78 15.25 20.95 14.83 21.3Q14.61 21.48 14.47 21.71Q14.21 22.13 14.21 22.7Q14.21 23.13 14.39 23.46Q14.59 23.83 15.01 24.09C15.25 24.23 15.73 24.43 16.45 24.67Q17.37 24.97 17.77 25.25C18.04 25.43 18.17 25.71 18.17 26.08Q18.17 26.37 18.05 26.61Q17.95 26.83 17.73 27C17.45 27.22 17.04 27.34 16.52 27.34Q15.72 27.34 15.21 26.98C14.87 26.73 14.64 26.39 14.51 25.96L13.91 26.31C14.09 26.84 14.41 27.26 14.86 27.57ZM41.97 24.93L41.97 24.57L38.47 24.57L38.47 25.23L41.25 25.23Q41.2 25.68 41 26.05Q40.8 26.44 40.44 26.75C39.96 27.14 39.33 27.34 38.55 27.34Q37.68 27.34 37.03 26.96Q36.69 26.77 36.41 26.49C35.85 25.92 35.58 25.22 35.58 24.4C35.58 23.57 35.85 22.87 36.41 22.31Q36.69 22.02 37.03 21.83Q37.68 21.46 38.55 21.46C39.07 21.46 39.54 21.58 39.98 21.84C40.41 22.09 40.74 22.43 40.96 22.86L41.58 22.5C41.28 21.98 40.87 21.56 40.33 21.25C39.79 20.93 39.19 20.78 38.55 20.78C37.49 20.78 36.61 21.13 35.92 21.83C35.22 22.53 34.88 23.38 34.88 24.4C34.88 25.41 35.22 26.27 35.92 26.97C36.61 27.67 37.49 28.02 38.55 28.02C39.59 28.02 40.42 27.72 41.04 27.13C41.66 26.53 41.97 25.79 41.97 24.93ZM2.12 20.9L4.7 27.9L5.42 27.9L8 20.9L7.24 20.9L5.06 26.97L2.88 20.9L2.12 20.9ZM11.21 20.9L10.51 20.9L10.51 27.9L11.21 27.9L11.21 20.9ZM25.82 21.56L25.82 20.9L20.82 20.9L20.82 21.56L22.97 21.56L22.97 27.9L23.67 27.9L23.67 21.56L25.82 21.56ZM32.52 27.24L29.12 27.24L29.12 24.7L32.22 24.7L32.22 24.04L29.12 24.04L29.12 21.56L32.47 21.56L32.47 20.9L28.42 20.9L28.42 27.9L32.52 27.9L32.52 27.24ZM47.43 25.1L49.07 27.9L49.87 27.9L48.16 25.01C48.6 24.88 48.96 24.63 49.24 24.27Q49.44 23.99 49.55 23.68Q49.67 23.36 49.67 23C49.67 22.42 49.46 21.92 49.05 21.52C48.64 21.1 48.15 20.9 47.57 20.9L44.77 20.9L44.77 27.9L45.47 27.9L45.47 25.1L47.43 25.1ZM56.48 26.18L57.13 27.9L57.87 27.9L55.18 20.9L54.46 20.9L51.77 27.9L52.51 27.9L53.16 26.18L56.48 26.18ZM45.47 24.44L45.47 21.56L47.57 21.56C47.95 21.56 48.28 21.7 48.56 21.98C48.83 22.26 48.97 22.6 48.97 23C48.97 23.39 48.83 23.73 48.56 24.02C48.28 24.3 47.95 24.44 47.57 24.44L45.47 24.44ZM54.82 21.77L56.23 25.52L53.41 25.52L54.82 21.77Z" fill="#FFFFFF" fill-opacity="1.000000" fill-rule="evenodd"/>
	<path id="-" d="M72.5 27.74L72.5 23.78L84.5 23.78L84.5 27.74L72.5 27.74Z" fill="#FFFFFF" fill-opacity="1.000000" fill-rule="evenodd"/>
	<path id="Shop" d="M101.55 34.4Q103.82 35.87 107.15 35.87Q110.59 35.87 112.79 34.21Q112.9 34.13 113 34.05C114.52 32.83 115.27 31.19 115.27 29.12C115.27 28.48 115.19 27.89 115.02 27.36C114.87 26.8 114.68 26.34 114.44 25.95C114.23 25.57 113.91 25.19 113.48 24.83C113.05 24.47 112.67 24.18 112.33 23.97C112.01 23.75 111.54 23.53 110.92 23.3Q110.03 22.91 109.48 22.75C109.14 22.62 108.63 22.45 107.95 22.24Q105.45 21.47 104.55 20.83Q104.08 20.46 103.87 19.98Q103.69 19.58 103.69 19.1Q103.69 18.59 103.89 18.18Q104.09 17.8 104.46 17.5C104.99 17.08 105.72 16.86 106.63 16.86Q107.91 16.86 108.89 17.41Q110.16 18.11 110.92 19.74L114.63 17.6Q113.8 15.88 112.48 14.72Q111.97 14.28 111.4 13.92Q111.01 13.66 110.6 13.46Q108.84 12.58 106.63 12.58Q104.67 12.58 103.07 13.33Q102.19 13.75 101.42 14.4Q100.6 15.09 100.09 15.96Q99.27 17.36 99.27 19.23Q99.27 20.77 99.82 21.92Q100.08 22.47 100.45 22.94Q100.85 23.44 101.39 23.84C102.09 24.33 102.78 24.72 103.47 25.02C104.17 25.32 105.02 25.62 106.03 25.92C107.84 26.43 109.1 26.91 109.8 27.36C110.51 27.79 110.86 28.39 110.86 29.18Q110.86 29.61 110.71 29.97Q110.5 30.49 109.99 30.88C109.42 31.33 108.51 31.55 107.27 31.55C104.71 31.55 103 30.41 102.12 28.13L98.34 30.34Q98.81 31.61 99.6 32.62Q100.41 33.64 101.55 34.4ZM131.18 20.74C130.05 19.56 128.61 18.98 126.86 18.98Q124.55 18.98 123.12 20.1Q122.53 20.56 122.09 21.22L122.09 13.02L117.96 13.02L117.96 35.42L122.09 35.42L122.09 26.78C122.09 25.46 122.41 24.47 123.05 23.81C123.69 23.15 124.54 22.82 125.61 22.82C126.57 22.82 127.34 23.1 127.91 23.68C128.49 24.23 128.78 25.04 128.78 26.11L128.78 35.42L132.91 35.42L132.91 25.6Q132.91 22.9 131.6 21.21Q131.4 20.96 131.18 20.74ZM147.59 35.15Q148.94 34.55 150.06 33.44Q151.21 32.29 151.83 30.9Q152.53 29.32 152.53 27.42C152.53 25.06 151.71 23.06 150.06 21.44Q148.91 20.29 147.52 19.67Q145.94 18.98 144.05 18.98Q142.15 18.98 140.57 19.67Q139.18 20.29 138.03 21.44Q136.95 22.52 136.35 23.83Q135.6 25.45 135.6 27.42C135.6 29.79 136.41 31.8 138.03 33.44Q139.15 34.55 140.5 35.15Q142.11 35.87 144.05 35.87Q145.98 35.87 147.59 35.15ZM170.25 21.44C168.73 19.8 166.9 18.98 164.74 18.98C162.5 18.98 160.77 19.75 159.56 21.31L159.56 19.42L155.43 19.42L155.43 41.82L159.56 41.82L159.56 33.54C160.77 35.09 162.5 35.87 164.74 35.87C166.9 35.87 168.73 35.06 170.25 33.44C171.78 31.8 172.55 29.79 172.55 27.42C172.55 25.06 171.78 23.06 170.25 21.44ZM163.97 31.94C162.69 31.94 161.64 31.52 160.81 30.69Q160.41 30.28 160.14 29.8Q159.56 28.77 159.56 27.42C159.56 26.1 159.97 25.02 160.81 24.19C161.64 23.34 162.69 22.91 163.97 22.91C165.25 22.91 166.31 23.34 167.14 24.19C168 25.02 168.42 26.1 168.42 27.42C168.42 28.75 168 29.83 167.14 30.69C166.31 31.52 165.25 31.94 163.97 31.94ZM144.05 31.84C142.81 31.84 141.77 31.42 140.94 30.59Q140.54 30.18 140.27 29.69Q139.73 28.71 139.73 27.42Q139.73 26.14 140.27 25.16Q140.54 24.67 140.94 24.26C141.77 23.42 142.81 23.01 144.05 23.01C145.28 23.01 146.32 23.42 147.15 24.26Q147.6 24.7 147.88 25.23Q148.4 26.19 148.4 27.42Q148.4 28.66 147.88 29.61Q147.6 30.14 147.15 30.59C146.32 31.42 145.28 31.84 144.05 31.84Z" fill="#FFFFFF" fill-opacity="1.000000" fill-rule="evenodd"/>
</svg>
